<svg width="14" height="14" viewBox="0 0 14 14" fill="none" xmlns="http://www.w3.org/2000/svg">
<path d="M12.25 2.33301C12.5491 2.33301 12.7957 2.5582 12.8294 2.84831L12.8333 2.91634V6.70801C12.8333 7.798 11.9791 8.6885 10.9036 8.74665L10.7916 8.74967H3.15871L5.0791 10.6705C5.28939 10.8808 5.30556 11.2117 5.12763 11.4405L5.0791 11.4955C4.86882 11.7058 4.53794 11.7219 4.3091 11.544L4.25415 11.4955L1.33748 8.57882C1.31683 8.55817 1.29806 8.53636 1.28115 8.5136L1.23935 8.44871L1.20817 8.38295L1.18754 8.3215L1.17305 8.25295L1.16895 8.21873L1.16663 8.16634L1.16825 8.12245L1.17843 8.04925L1.19564 7.98426L1.22127 7.91946L1.25179 7.86259L1.28895 7.80882L1.33748 7.75386L4.25415 4.8372C4.48195 4.60939 4.8513 4.60939 5.0791 4.8372C5.28939 5.04748 5.30556 5.37836 5.12763 5.6072L5.0791 5.66215L3.15871 7.58301H10.7916C11.2464 7.58301 11.6202 7.23599 11.6626 6.79228L11.6666 6.70801V2.91634C11.6666 2.59418 11.9278 2.33301 12.25 2.33301Z" fill="white"/>
</svg>
