<svg width="4145" height="3388" viewBox="0 0 4145 3388" fill="none" xmlns="http://www.w3.org/2000/svg">
<path d="M1648.58 2759.75C2044.17 2514.86 2103.13 1953.17 1758.68 1673.35C1725.43 1709.15 1691.5 1745.69 1653.44 1786.66C1805.49 1949.93 1861.52 2135.89 1787.57 2348.06C1713.01 2561.95 1542.34 2656.37 1325.45 2696.3C1388.04 2785.75 1443.41 2864.89 1507 2955.77C1470.36 2959.11 1447.92 2962.91 1425.48 2962.94C1115.25 2963.33 805.005 2961.89 494.792 2964.47C441.45 2964.91 412.79 2947.31 387.589 2899.89C247.337 2635.99 301.66 2336.83 530.198 2144.26C1146.35 1625.07 1762.9 1106.37 2379.55 587.797C2564.8 432.014 2771.38 427.602 2966.74 568.026C2992.88 586.814 3036.46 591.303 3070.03 586.971C3313.54 555.546 3554.46 551.748 3788.7 641.044C3949.07 702.176 3983.71 841.449 3867.17 969.821C3446.81 1432.85 3025.51 1895.01 2602.27 2355.31C2562.66 2398.39 2555.72 2433.27 2576.92 2485.69C2610.67 2569.18 2641.29 2654.36 2666.94 2740.76C2704.33 2866.7 2635.97 2961.43 2506.95 2962.5C2264.18 2964.52 2021.37 2963.33 1778.58 2963.06C1731.44 2963 1607.64 2848.62 1607.89 2801.25C1607.96 2788.38 1631.14 2775.65 1648.58 2759.75ZM2510.25 968.483C2537.44 1048.7 2592.53 1106.31 2675.24 1097.91C2729.89 1092.35 2792.2 1058.7 2830.44 1017.74C2884.01 960.365 2872.07 867.701 2823.78 805.946C2777.18 746.356 2692.62 723.942 2619.78 751.878C2538.8 782.938 2503.87 846.188 2510.25 968.483Z" fill="#3CC858"/>
<path d="M3360.46 2260.52C3457.09 2406.07 3549.8 2547.14 3644.2 2687.04C3685.4 2748.11 3702.33 2810.67 3665.87 2879.19C3629.13 2948.23 3567.59 2965.5 3494.9 2963.95C3387.11 2961.64 3279.19 2961.62 3171.41 2964.22C3126.83 2965.29 3103.13 2955.15 3095.66 2904.87C3064.33 2693.76 3028.71 2483.31 2996.38 2272.36C2992.9 2249.65 2992.33 2218.85 3004.45 2202.62C3057.65 2131.39 3116.01 2064.14 3178.15 1988.56C3242.41 2084.37 3299.82 2169.96 3360.46 2260.52Z" fill="#3CC858"/>
</svg>
