<svg width="6" height="6" viewBox="0 0 6 6" fill="none" xmlns="http://www.w3.org/2000/svg">
<g clip-path="url(#clip0_2091_214)">
<path d="M5.25684 1.26908L5.25684 3.00002C5.25684 3.2053 5.42326 3.37172 5.62854 3.37172C5.83381 3.37172 6.00023 3.2053 6.00023 3.00002L6.00023 0.371759C6.00023 0.166483 5.83381 6.22107e-05 5.62854 6.22196e-05L3.00022 6.23345e-05C2.79494 6.23435e-05 2.62852 0.166483 2.62852 0.371759C2.62852 0.577034 2.79494 0.743455 3.00022 0.743455L4.73119 0.743455L0.109114 5.36548C-0.0360459 5.51064 -0.0360458 5.74599 0.109114 5.89113C0.254274 6.03629 0.489632 6.03629 0.634767 5.89113L5.25684 1.26908Z" fill="black"/>
</g>
<defs>
<clipPath id="clip0_2091_214">
<rect width="6" height="6" fill="white" transform="translate(0 6) rotate(-90)"/>
</clipPath>
</defs>
</svg>
