<svg width="18" height="18" viewBox="0 0 18 18" fill="none" xmlns="http://www.w3.org/2000/svg">
<g clip-path="url(#clip0_2091_327)">
<path d="M17.6599 10.8036L16.2886 9.72061C16.0701 9.54806 15.9488 9.28365 15.9487 9.00525C15.9487 9.0023 15.9487 8.99934 15.9487 8.99639C15.9482 8.71739 16.0696 8.45224 16.2886 8.27934L17.6599 7.19632C17.974 6.94829 18.085 6.52185 17.9319 6.15215L17.3295 4.69787C17.1764 4.32817 16.7963 4.10514 16.3989 4.15182L14.6634 4.35573C14.3863 4.38829 14.113 4.28661 13.916 4.08904C13.9139 4.08693 13.9119 4.08485 13.9098 4.08278C13.713 3.88583 13.6118 3.61309 13.6443 3.33659L13.8482 1.60117C13.8948 1.20373 13.6718 0.823653 13.3021 0.670513L11.8478 0.0681454C11.4781 -0.0849952 11.0517 0.0260985 10.8037 0.340114L9.72067 1.71138C9.54812 1.92988 9.28368 2.05117 9.00528 2.05127C9.00232 2.05127 8.99937 2.05127 8.99642 2.05127C8.71745 2.05177 8.4523 1.93034 8.27941 1.71142L7.19642 0.340114C6.94839 0.0260634 6.52194 -0.0849952 6.15221 0.0681454L4.69797 0.670478C4.32827 0.823618 4.10523 1.20369 4.15192 1.60117L4.35579 3.33669C4.38835 3.61376 4.28675 3.8871 4.08913 4.08401C4.08706 4.08608 4.08498 4.08816 4.08287 4.09027C3.88593 4.28707 3.61319 4.38829 3.33665 4.35577L1.60123 4.1519C1.20379 4.10521 0.823714 4.3282 0.670574 4.69791L0.0682064 6.15218C-0.0849342 6.52188 0.0261596 6.94833 0.340175 7.19636L1.71148 8.27934C1.92998 8.45189 2.05127 8.7163 2.05137 8.9947C2.05137 8.99766 2.05137 9.00058 2.05137 9.00353C2.05186 9.28249 1.93043 9.54764 1.71152 9.72054L0.340175 10.8036C0.0261244 11.0516 -0.0849342 11.4781 0.0682064 11.8478L0.670574 13.302C0.823714 13.6717 1.20382 13.8947 1.60123 13.8481L3.33675 13.6442C3.61386 13.6116 3.88716 13.7133 4.08411 13.9109C4.08618 13.913 4.08825 13.9151 4.09036 13.9171C4.28713 14.1141 4.38835 14.3868 4.35586 14.6634L4.15199 16.3988C4.1053 16.7963 4.3283 17.1763 4.69804 17.3295L6.15231 17.9318C6.52202 18.085 6.94846 17.9739 7.19649 17.6599L8.27944 16.2886C8.45199 16.0701 8.71643 15.9488 8.9948 15.9487C8.99775 15.9487 9.00071 15.9487 9.00362 15.9487C9.28262 15.9482 9.54777 16.0696 9.72067 16.2885L10.8037 17.6599C11.0517 17.9739 11.4782 18.085 11.8479 17.9318L13.3021 17.3295C13.6718 17.1763 13.8949 16.7962 13.8482 16.3988L13.6443 14.6633C13.6117 14.3862 13.7134 14.1129 13.911 13.916C13.9131 13.9139 13.9152 13.9118 13.9172 13.9097C14.1142 13.713 14.3869 13.6117 14.6634 13.6442L16.3989 13.8481C16.7963 13.8948 17.1764 13.6718 17.3295 13.3021L17.9319 11.8478C18.085 11.4781 17.974 11.0516 17.6599 10.8036ZM9.88921 11.5909C8.49421 12.1688 6.89488 11.5063 6.31709 10.1113C5.73926 8.7163 6.40171 7.11701 7.79671 6.53915C9.19171 5.96132 10.791 6.62377 11.3689 8.0188C11.9467 9.4138 11.2842 11.0131 9.88921 11.5909Z" fill="#C4C4C4"/>
</g>
<defs>
<clipPath id="clip0_2091_327">
<rect width="18" height="18" fill="white"/>
</clipPath>
</defs>
</svg>
